HIERARCHY
ROOT Hips
{
	OFFSET 0.000000 100.481300 0.000000
	CHANNELS 6 Xposition Yposition Zposition Xrotation Yrotation Zrotation
	JOINT Spine
	{
		OFFSET -0.279200 12.230698 -2.892100
		CHANNELS 3 Xrotation Yrotation Zrotation
		JOINT Spine1
		{
			OFFSET -0.325700 14.269203 -3.374200
			CHANNELS 3 Xrotation Yrotation Zrotation
			JOINT Spine2
			{
				OFFSET -0.372300 16.307602 -0.352600
				CHANNELS 3 Xrotation Yrotation Zrotation
				JOINT Neck
				{
					OFFSET -0.418800 17.814194 8.416900
					CHANNELS 3 Xrotation Yrotation Zrotation
					JOINT Head
					{
						OFFSET 0.000000 7.031097 3.806800
						CHANNELS 3 Xrotation Yrotation Zrotation
						JOINT HeadTop_End
						{
							OFFSET 0.000000 24.646606 12.978600
							CHANNELS 3 Xrotation Yrotation Zrotation
							End Site
							{
								OFFSET 0.000000 27.854965 0.000000
							}
						}
					}
				}
				JOINT LeftShoulder
				{
					OFFSET 16.952999 14.495407 -7.737500
					CHANNELS 3 Xrotation Yrotation Zrotation
					JOINT LeftArm
					{
						OFFSET 9.308998 -2.777710 0.208600
						CHANNELS 3 Xrotation Yrotation Zrotation
						JOINT LeftForeArm
						{
							OFFSET 29.972298 0.000000 0.000000
							CHANNELS 3 Xrotation Yrotation Zrotation
							JOINT LeftHand
							{
								OFFSET 26.026505 0.000000 0.000000
								CHANNELS 3 Xrotation Yrotation Zrotation
								JOINT LeftHandThumb1
								{
									OFFSET 12.240501 -7.147949 9.207150
									CHANNELS 3 Xrotation Yrotation Zrotation
									JOINT LeftHandThumb2
									{
										OFFSET 4.138618 -2.389435 2.389433
										CHANNELS 3 Xrotation Yrotation Zrotation
										JOINT LeftHandThumb3
										{
											OFFSET 2.726913 -1.574387 1.574386
											CHANNELS 3 Xrotation Yrotation Zrotation
											JOINT LeftHandThumb4
											{
												OFFSET 3.941010 -2.275345 2.275342
												CHANNELS 3 Xrotation Yrotation Zrotation
												End Site
												{
													OFFSET -0.005798 5.087799 0.009903
												}
											}
										}
									}
								}
								JOINT LeftHandIndex1
								{
									OFFSET 24.424698 -1.985611 5.953459
									CHANNELS 3 Xrotation Yrotation Zrotation
									JOINT LeftHandIndex2
									{
										OFFSET 6.426697 0.000000 0.000000
										CHANNELS 3 Xrotation Yrotation Zrotation
										JOINT LeftHandIndex3
										{
											OFFSET 5.337898 0.000000 0.000000
											CHANNELS 3 Xrotation Yrotation Zrotation
											JOINT LeftHandIndex4
											{
												OFFSET 4.409401 0.000000 0.000000
												CHANNELS 3 Xrotation Yrotation Zrotation
												End Site
												{
													OFFSET 0.000000 4.409363 0.014373
												}
											}
										}
									}
								}
								JOINT LeftHandMiddle1
								{
									OFFSET 23.810104 0.000000 0.000000
									CHANNELS 3 Xrotation Yrotation Zrotation
									JOINT LeftHandMiddle2
									{
										OFFSET 7.176498 0.000000 0.000000
										CHANNELS 3 Xrotation Yrotation Zrotation
										JOINT LeftHandMiddle3
										{
											OFFSET 6.774902 0.000000 0.000000
											CHANNELS 3 Xrotation Yrotation Zrotation
											JOINT LeftHandMiddle4
											{
												OFFSET 5.403328 0.000000 0.000000
												CHANNELS 3 Xrotation Yrotation Zrotation
												End Site
												{
													OFFSET -0.027702 5.403244 0.017414
												}
											}
										}
									}
								}
								JOINT LeftHandRing1
								{
									OFFSET 22.908401 -0.839279 -6.020567
									CHANNELS 3 Xrotation Yrotation Zrotation
									JOINT LeftHandRing2
									{
										OFFSET 6.337502 0.000000 0.000000
										CHANNELS 3 Xrotation Yrotation Zrotation
										JOINT LeftHandRing3
										{
											OFFSET 5.779297 0.000000 0.000000
											CHANNELS 3 Xrotation Yrotation Zrotation
											JOINT LeftHandRing4
											{
												OFFSET 4.965698 0.000000 0.000000
												CHANNELS 3 Xrotation Yrotation Zrotation
												End Site
												{
													OFFSET 0.000000 4.965668 0.016186
												}
											}
										}
									}
								}
								JOINT LeftHandPinky1
								{
									OFFSET 20.037003 -1.530319 -10.950146
									CHANNELS 3 Xrotation Yrotation Zrotation
									JOINT LeftHandPinky2
									{
										OFFSET 5.254700 0.000000 0.000000
										CHANNELS 3 Xrotation Yrotation Zrotation
										JOINT LeftHandPinky3
										{
											OFFSET 4.810204 0.000000 0.000000
											CHANNELS 3 Xrotation Yrotation Zrotation
											JOINT LeftHandPinky4
											{
												OFFSET 3.647202 0.000000 0.000000
												CHANNELS 3 Xrotation Yrotation Zrotation
												End Site
												{
													OFFSET 0.000000 3.647186 0.011889
												}
											}
										}
									}
								}
							}
						}
					}
				}
				JOINT RightShoulder
				{
					OFFSET -15.141001 14.495407 -7.737500
					CHANNELS 3 Xrotation Yrotation Zrotation
					JOINT RightArm
					{
						OFFSET -9.308998 -2.777710 0.208500
						CHANNELS 3 Xrotation Yrotation Zrotation
						JOINT RightForeArm
						{
							OFFSET -29.972300 0.000000 0.000000
							CHANNELS 3 Xrotation Yrotation Zrotation
							JOINT RightHand
							{
								OFFSET -26.026505 0.000000 0.000000
								CHANNELS 3 Xrotation Yrotation Zrotation
								JOINT RightHandThumb1
								{
									OFFSET -12.240601 -7.148026 9.207092
									CHANNELS 3 Xrotation Yrotation Zrotation
									JOINT RightHandThumb2
									{
										OFFSET -4.138618 -2.389435 2.389433
										CHANNELS 3 Xrotation Yrotation Zrotation
										JOINT RightHandThumb3
										{
											OFFSET -2.726974 -1.574417 1.574421
											CHANNELS 3 Xrotation Yrotation Zrotation
											JOINT RightHandThumb4
											{
												OFFSET -3.941010 -2.275345 2.275343
												CHANNELS 3 Xrotation Yrotation Zrotation
												End Site
												{
													OFFSET 0.005814 5.087799 0.009927
												}
											}
										}
									}
								}
								JOINT RightHandIndex1
								{
									OFFSET -24.424698 -1.985657 5.953444
									CHANNELS 3 Xrotation Yrotation Zrotation
									JOINT RightHandIndex2
									{
										OFFSET -6.426697 0.000000 0.000000
										CHANNELS 3 Xrotation Yrotation Zrotation
										JOINT RightHandIndex3
										{
											OFFSET -5.337898 0.000000 0.000000
											CHANNELS 3 Xrotation Yrotation Zrotation
											JOINT RightHandIndex4
											{
												OFFSET -4.409401 0.000000 0.000000
												CHANNELS 3 Xrotation Yrotation Zrotation
												End Site
												{
													OFFSET 0.000000 4.409363 0.014408
												}
											}
										}
									}
								}
								JOINT RightHandMiddle1
								{
									OFFSET -23.810097 0.000000 0.000000
									CHANNELS 3 Xrotation Yrotation Zrotation
									JOINT RightHandMiddle2
									{
										OFFSET -7.176498 0.000000 0.000000
										CHANNELS 3 Xrotation Yrotation Zrotation
										JOINT RightHandMiddle3
										{
											OFFSET -6.774902 0.000000 0.000000
											CHANNELS 3 Xrotation Yrotation Zrotation
											JOINT RightHandMiddle4
											{
												OFFSET -5.403328 0.000000 0.000000
												CHANNELS 3 Xrotation Yrotation Zrotation
												End Site
												{
													OFFSET 0.027702 5.403244 0.017457
												}
											}
										}
									}
								}
								JOINT RightHandRing1
								{
									OFFSET -22.908302 -0.839325 -6.020576
									CHANNELS 3 Xrotation Yrotation Zrotation
									JOINT RightHandRing2
									{
										OFFSET -6.337502 0.000000 0.000000
										CHANNELS 3 Xrotation Yrotation Zrotation
										JOINT RightHandRing3
										{
											OFFSET -5.779297 0.000000 0.000000
											CHANNELS 3 Xrotation Yrotation Zrotation
											JOINT RightHandRing4
											{
												OFFSET -4.965698 0.000000 0.000000
												CHANNELS 3 Xrotation Yrotation Zrotation
												End Site
												{
													OFFSET 0.000000 4.965668 0.016226
												}
											}
										}
									}
								}
								JOINT RightHandPinky1
								{
									OFFSET -20.037003 -1.530334 -10.950259
									CHANNELS 3 Xrotation Yrotation Zrotation
									JOINT RightHandPinky2
									{
										OFFSET -5.254700 0.000000 0.000000
										CHANNELS 3 Xrotation Yrotation Zrotation
										JOINT RightHandPinky3
										{
											OFFSET -4.810204 0.000000 0.000000
											CHANNELS 3 Xrotation Yrotation Zrotation
											JOINT RightHandPinky4
											{
												OFFSET -3.647202 0.000000 0.000000
												CHANNELS 3 Xrotation Yrotation Zrotation
												End Site
												{
													OFFSET 0.000000 3.647186 0.011917
												}
											}
										}
									}
								}
							}
						}
					}
				}
			}
		}
	}
	JOINT LeftUpLeg
	{
		OFFSET 15.427100 -6.655098 0.678600
		CHANNELS 3 Xrotation Yrotation Zrotation
		JOINT LeftLeg
		{
			OFFSET 4.081073 -39.591068 13.024000
			CHANNELS 3 Xrotation Yrotation Zrotation
			JOINT LeftFoot
			{
				OFFSET -4.081074 -37.707932 -15.979700
				CHANNELS 3 Xrotation Yrotation Zrotation
				JOINT LeftToeBase
				{
					OFFSET 5.346399 -15.068900 20.645000
					CHANNELS 3 Xrotation Yrotation Zrotation
					JOINT LeftToe_End
					{
						OFFSET 2.754700 0.931300 11.300900
						CHANNELS 3 Xrotation Yrotation Zrotation
						End Site
						{
							OFFSET 0.000000 11.669021 0.000000
						}
					}
				}
			}
		}
	}
	JOINT RightUpLeg
	{
		OFFSET -15.569500 -6.655098 0.678600
		CHANNELS 3 Xrotation Yrotation Zrotation
		JOINT RightLeg
		{
			OFFSET -4.081825 -39.591045 13.023800
			CHANNELS 3 Xrotation Yrotation Zrotation
			JOINT RightFoot
			{
				OFFSET 4.081824 -37.707954 -15.979600
				CHANNELS 3 Xrotation Yrotation Zrotation
				JOINT RightToeBase
				{
					OFFSET -5.346400 -15.068900 20.645000
					CHANNELS 3 Xrotation Yrotation Zrotation
					JOINT RightToe_End
					{
						OFFSET -2.754700 0.931300 11.300900
						CHANNELS 3 Xrotation Yrotation Zrotation
						End Site
						{
							OFFSET 0.000000 11.669021 0.000000
						}
					}
				}
			}
		}
	}
}
MOTION
Frames: 4
Frame Time: 0.033333
0.016903 91.046799 41.303898 4.718360 5.668897 2.948983 3.557831 0.459543 2.264032 7.409019 0.738277 2.518942 7.404972 0.764101 2.537841 -10.949580 -1.664138 1.076610 -28.081450 -4.293012 -9.504013 0.000001 0.000000 0.000000 3.109704 -19.089778 8.247148 -55.527105 3.898176 -77.444216 0.002712 -91.303387 0.002750 -38.167329 -13.406116 34.565866 -7.225340 -17.410965 15.441319 3.025711 19.592678 -24.930643 -14.538496 9.991292 7.612339 -0.000002 0.000000 0.000002 8.722005 -5.644873 7.216994 -0.000005 -0.000002 -0.000028 0.005925 0.263721 -2.574356 0.000000 -0.000002 0.000002 0.108387 1.616406 9.091568 0.002841 0.182875 -1.784935 0.191440 1.486935 -14.673012 0.000002 0.000000 0.000002 -0.641248 4.872994 12.788030 0.015201 0.422405 -4.125579 0.265918 1.746621 -17.311681 -0.000000 0.000000 0.000001 -4.618263 13.221483 22.299444 0.032030 0.612511 -5.988218 0.108043 1.121063 -11.008802 -0.000002 0.000000 0.000001 9.476660 8.680236 3.936431 -65.977380 11.265164 49.424693 0.000556 98.227689 -0.000612 10.819477 10.978073 -31.571388 1.887753 25.921275 -42.627392 2.603982 -23.411045 35.222346 -10.666681 -20.650310 -8.920721 -0.000001 0.000002 -0.000000 3.569539 7.787046 -20.649784 0.057192 -0.728369 8.978121 0.001924 -0.134199 1.647658 0.000003 0.000001 0.000001 0.204152 -1.084952 -15.078068 -0.000002 -0.000002 -0.000001 0.000704 -0.080115 0.983455 -0.000002 0.000002 0.000000 -0.719507 -4.980709 -13.479971 0.011094 -0.321600 3.951130 0.057881 -0.732803 9.033486 0.000002 0.000001 -0.000001 -13.505283 -14.685040 -9.792716 0.000009 -0.005152 0.063159 0.015747 -0.382996 4.706954 -0.000000 -0.000001 -0.000002 -18.606837 3.183447 3.768363 25.366284 -6.325258 -0.923787 -11.789670 0.515692 -2.008831 -1.603878 0.000001 -0.000000 -0.000000 0.000000 -0.000000 -24.618343 -11.538156 -13.478755 30.193401 -0.960775 2.618950 -11.447330 3.941890 3.979807 -0.746053 0.000001 -0.000003 -0.000000 -0.000000 0.000000 
0.030386 91.161545 41.212090 4.810176 5.545700 2.930635 3.584254 0.423701 2.276961 7.432597 0.643559 2.515726 7.426816 0.669962 2.540269 -11.187741 -1.607081 0.988773 -27.486723 -4.203692 -9.443172 -0.000000 0.000000 0.000000 3.261018 -19.793084 8.508565 -57.856094 2.661773 -80.034838 0.054396 -90.883590 0.054479 -32.099758 -12.674543 51.298614 -9.251337 -22.442118 19.768514 4.156997 17.271042 -26.950902 -14.310646 16.170333 13.837950 0.000001 -0.000002 0.000001 6.870525 -7.520034 5.321012 -0.000003 -0.000003 0.000007 0.007596 -0.298427 2.913369 0.000002 0.000000 -0.000002 0.888286 -2.311397 11.228758 0.002705 0.178373 -1.740870 0.134084 1.247492 -12.268829 0.000000 0.000001 -0.000002 0.005949 1.775111 15.483142 0.014954 0.418788 -4.090205 0.267089 1.750403 -17.350188 -0.000001 0.000000 -0.000001 -3.333625 9.567562 22.768512 0.001320 0.125428 -1.224002 0.108803 1.125018 -11.047980 -0.000003 -0.000000 -0.000001 8.993305 12.553077 5.679027 -66.399008 11.253796 49.169996 0.000255 98.770471 -0.000263 14.635635 15.383697 -50.529599 -1.907878 22.621061 -41.222630 2.636374 -23.508232 34.394691 -8.451917 -26.493957 -8.107452 -0.000002 0.000004 0.000003 2.368021 6.753712 -15.152659 0.013674 -0.356933 4.385870 0.000290 -0.052568 0.645352 0.000002 0.000000 -0.000002 0.482134 0.231376 -12.080140 0.000002 -0.000006 -0.000004 0.000386 0.059724 -0.733225 -0.000001 -0.000001 -0.000001 -0.241071 -3.292931 -11.231505 0.000544 -0.071137 0.873323 0.071993 -0.816631 10.077097 -0.000001 -0.000003 -0.000002 -15.513014 -12.171754 -8.114332 -0.000009 -0.005142 0.063142 0.022890 -0.461617 5.676073 0.000001 -0.000000 0.000001 -18.600859 3.158264 3.784990 25.100156 -6.182569 -0.932235 -11.612279 0.533307 -2.063049 -1.601494 0.000003 0.000000 0.000000 0.000000 -0.000000 -24.674642 -11.497443 -13.387655 29.899706 -0.930203 2.611610 -11.182692 3.954927 3.928504 -0.745663 0.000000 -0.000001 0.000000 -0.000001 -0.000000 
0.026957 91.264275 41.173962 4.853536 5.311071 2.934058 3.814193 0.383787 2.287254 7.708634 0.547446 2.528618 7.702322 0.573519 2.556458 -11.483330 -1.514940 0.928307 -27.292077 -3.885200 -9.391071 -0.000000 0.000000 0.000000 3.497199 -19.682928 10.288699 -59.933564 -6.895935 -84.440276 -0.005716 -88.913108 -0.005851 -31.826417 -13.210484 60.420605 -9.693877 -29.228288 26.688541 5.490237 14.037693 -29.431056 -14.056252 25.152254 18.085952 -0.000000 -0.000000 -0.000002 4.038875 -8.753529 1.611167 -0.000000 0.000001 -0.000013 0.014172 -0.407639 3.981159 0.000003 0.000003 -0.000001 1.338804 -5.265627 9.852003 0.002576 0.174389 -1.702025 0.090660 1.027665 -10.081241 -0.000002 0.000000 -0.000002 0.539271 -0.526918 11.673487 0.014834 0.416965 -4.072429 0.268750 1.755764 -17.405077 0.000000 0.000001 -0.000000 -1.373821 6.459283 16.573587 0.000275 0.056454 -0.550994 0.109241 1.127310 -11.070716 0.000001 0.000001 -0.000001 8.799795 13.322398 5.454646 -60.786607 21.448032 52.755708 0.001244 94.192762 -0.001288 14.372958 18.670430 -57.605542 -6.175820 19.222355 -39.788823 3.422725 -24.511695 32.598177 -4.241526 -33.927305 -6.253982 -0.000000 0.000000 0.000001 0.763833 4.795698 -5.719677 0.009727 -0.301137 3.699274 0.022524 -0.458023 5.631660 -0.000001 0.000000 -0.000000 0.457883 1.578900 -6.366074 0.000334 -0.055203 0.677612 0.000144 -0.036060 0.442598 -0.000002 -0.000003 -0.000002 0.153289 -1.125598 -6.808141 0.007602 -0.266335 3.271286 0.112274 -1.017489 12.592739 -0.000000 -0.000003 -0.000001 -15.476082 -8.737948 -4.472269 -0.000003 -0.005146 0.063152 0.052187 -0.696016 8.576516 0.000000 0.000000 -0.000000 -18.463613 3.134444 3.832233 24.845841 -5.952486 -0.946952 -11.523350 0.563802 -2.161051 -1.599091 0.000000 -0.000002 -0.000000 -0.000000 0.000000 -24.690289 -11.467706 -13.276462 29.632557 -0.795210 2.599155 -10.950334 3.976826 3.829541 -0.745212 -0.000000 -0.000000 0.000000 -0.000000 -0.000000 
0.024387 91.326279 41.162304 4.952580 4.962145 2.954564 4.077584 0.331624 2.271269 8.027539 0.417908 2.536510 8.019153 0.445032 2.572404 -11.897537 -1.454701 0.948773 -26.910438 -3.706406 -9.086134 0.000000 0.000000 -0.000000 3.452026 -18.790909 11.238812 -61.972711 -18.376325 -86.483937 0.000524 -85.934401 0.000538 -33.735472 -11.857392 58.480619 -8.450630 -33.985799 34.380379 6.568242 10.894317 -31.542251 -10.952634 34.240401 15.900605 -0.000002 0.000000 -0.000000 1.161453 -8.310859 -3.040417 -0.000002 0.000005 -0.000029 0.004337 0.225439 -2.200446 -0.000001 -0.000000 0.000000 0.787402 -5.986510 4.724286 0.195859 1.503675 -14.842066 0.075504 0.938467 -9.198208 -0.000001 -0.000003 -0.000001 0.168243 -1.207364 1.542364 0.137645 1.263801 -12.431873 0.270459 1.761149 -17.460327 0.000001 -0.000000 -0.000000 -0.054104 4.882756 2.690660 0.029285 0.585713 -5.725290 0.108949 1.125718 -11.055007 0.000001 -0.000000 -0.000000 8.609568 12.933061 2.917829 -55.472809 34.133269 54.931615 0.000058 87.069264 -0.000119 14.762458 17.139644 -53.517350 -9.474189 16.982203 -38.573606 7.167596 -24.448403 31.180292 0.573955 -39.969072 -3.582253 -0.000004 -0.000001 -0.000001 -0.363091 2.847171 4.654007 0.046498 -0.657187 8.094628 0.181970 -1.290434 16.052625 -0.000000 -0.000001 -0.000001 -0.004665 2.780873 0.802030 0.099711 -0.959550 11.864728 0.015933 -0.385404 4.736487 -0.000001 0.000000 0.000000 0.141452 1.243268 -1.406705 0.092901 -0.926560 11.451265 0.179333 -1.281233 15.935192 -0.000000 -0.000001 0.000000 -14.955480 -4.522855 0.166141 0.010799 -0.317394 3.899203 0.114534 -1.027559 12.719408 -0.000000 0.000000 0.000000 -18.361075 3.105485 3.896849 24.677421 -5.625226 -0.970741 -11.531692 0.611878 -2.299257 -1.596829 0.000003 -0.000000 0.000000 0.000000 -0.000000 -24.838526 -11.421173 -13.164574 29.459699 -0.558517 2.581061 -10.746610 4.009721 3.687302 -0.744674 -0.000003 -0.000002 -0.000000 -0.000000 -0.000000 
